<?xml version="1.0" standalone="no"?>
<!DOCTYPE svg PUBLIC "-//W3C//DTD SVG 20010904//EN"
 "http://www.w3.org/TR/2001/REC-SVG-20010904/DTD/svg10.dtd">
<svg version="1.0" xmlns="http://www.w3.org/2000/svg"
 width="709.000000pt" height="295.000000pt" viewBox="0 0 709.000000 295.000000"
 preserveAspectRatio="xMidYMid meet">

<g transform="translate(0.000000,295.000000) scale(0.100000,-0.100000)"
fill="#000000" stroke="none">
<path d="M2466 2652 c-2 -4 57 -73 132 -152 335 -355 577 -625 577 -641 0 -10
-162 -183 -365 -390 -201 -204 -366 -375 -368 -380 -2 -5 40 -9 93 -9 l97 0
292 298 c497 508 463 469 446 497 -8 13 -33 43 -55 67 -23 24 -145 155 -273
292 -128 137 -231 254 -229 260 5 16 41 19 125 11 87 -8 59 16 372 -320 112
-121 210 -221 216 -223 6 -2 121 118 255 265 134 147 278 304 319 348 l75 80
-67 3 c-121 5 -124 3 -317 -203 -95 -102 -189 -206 -208 -230 -19 -25 -42 -45
-52 -45 -10 0 -109 96 -231 226 -117 124 -226 232 -241 240 -22 11 -84 14
-308 14 -154 0 -282 -3 -285 -8z"/>
<path d="M4364 2622 c-32 -38 -255 -278 -510 -547 -156 -166 -194 -209 -194
-222 0 -4 133 -141 295 -303 162 -162 295 -301 295 -307 0 -19 -172 -18 -208
1 -15 8 -52 40 -82 72 -30 33 -140 150 -245 262 -104 111 -194 201 -200 200
-6 -2 -90 -88 -186 -192 -96 -104 -239 -259 -318 -345 l-144 -156 91 -3 c61
-2 100 2 115 10 13 7 118 116 232 241 l210 228 65 -68 c36 -38 139 -147 228
-241 l164 -172 331 0 332 0 -240 243 c-132 133 -305 308 -384 389 l-144 147
33 38 c18 21 182 197 364 391 182 195 333 358 334 363 2 5 -42 9 -100 9 l-103
0 -31 -38z"/>
<path d="M4464 2360 c-106 -16 -150 -66 -166 -187 -5 -43 -8 -204 -6 -358 3
-262 5 -283 25 -320 26 -51 52 -73 100 -91 49 -17 895 -20 958 -3 44 12 97 57
123 104 15 26 17 71 17 360 0 354 -3 377 -52 436 -55 65 -44 64 -518 66 -236
0 -453 -2 -481 -7z m726 -214 c14 -6 33 -27 43 -46 16 -31 17 -60 15 -245 -3
-224 -7 -242 -55 -264 -15 -7 -123 -11 -292 -11 -255 0 -270 1 -294 20 -39 31
-47 77 -47 278 0 266 5 273 185 283 150 8 415 -1 445 -15z"/>
<path d="M134 2352 c-19 -12 18 -138 50 -170 l26 -27 193 -5 192 -5 3 -382 2
-383 100 0 c104 0 138 10 157 48 4 9 10 175 13 367 l5 350 185 5 c193 5 219
11 241 52 14 26 39 116 39 141 0 16 -35 17 -597 17 -329 0 -603 -4 -609 -8z"/>
<path d="M1455 2344 c-18 -19 -19 -76 -8 -631 l6 -313 598 0 599 0 0 60 c0 65
-18 112 -47 126 -10 5 -214 11 -453 14 l-435 5 -3 273 c-2 254 -1 272 15 273
10 1 208 2 440 3 l422 1 28 28 c25 25 28 34 28 100 l0 72 -587 3 c-532 2 -588
1 -603 -14z"/>
<path d="M5624 2337 c-3 -8 -4 -196 -2 -419 l3 -405 27 -39 c15 -22 42 -48 60
-59 32 -19 55 -20 571 -23 l537 -3 0 51 c0 56 -20 104 -49 120 -13 6 -161 10
-408 10 -367 0 -390 1 -420 20 -56 34 -57 37 -57 383 l-1 319 -33 29 c-31 28
-36 29 -127 29 -71 0 -97 -4 -101 -13z"/>
<path d="M1807 1973 c-14 -13 -7 -109 11 -143 28 -58 50 -61 426 -58 l331 3 0
73 c0 71 -1 75 -33 103 l-32 29 -348 0 c-192 0 -352 -3 -355 -7z"/>
<path d="M5580 1190 l0 -110 31 0 30 0 -4 66 c-7 104 -7 104 77 104 77 0 88
-4 79 -26 -4 -10 -23 -14 -69 -14 -35 0 -64 -3 -64 -7 0 -4 26 -33 57 -65 51
-51 62 -58 97 -58 l40 0 -34 35 c-35 36 -33 50 5 57 16 3 21 12 23 53 5 70 -6
75 -150 75 l-118 0 0 -110z"/>
<path d="M5935 1293 c-16 -2 -36 -12 -42 -21 -17 -21 -17 -164 -1 -180 8 -8
49 -12 119 -12 124 0 139 8 139 71 0 47 -7 51 -86 47 l-59 -3 43 -14 c33 -11
42 -19 42 -38 0 -22 -3 -23 -75 -23 l-76 0 3 63 3 62 90 3 c115 3 128 7 96 33
-19 15 -37 19 -95 18 -39 -1 -84 -4 -101 -6z"/>
<path d="M6576 1287 c-13 -10 -19 -27 -19 -55 0 -65 11 -72 119 -72 87 0 94
-1 94 -20 0 -19 -7 -20 -106 -20 -95 0 -105 -2 -102 -17 3 -16 18 -18 117 -21
130 -3 151 6 151 64 0 54 -19 64 -126 64 -86 0 -95 2 -92 18 3 15 18 17 111
20 59 1 107 7 107 12 0 5 -10 16 -22 24 -29 21 -205 23 -232 3z"/>
<path d="M4700 1185 l0 -106 133 3 c109 3 132 6 132 18 0 12 -21 16 -105 20
l-105 5 -3 39 c-7 83 -4 85 110 88 89 3 103 5 106 21 3 15 -8 17 -132 17
l-136 0 0 -105z"/>
<path d="M4996 1278 c-3 -7 -4 -53 -3 -103 2 -83 4 -90 22 -90 18 0 21 8 25
68 3 37 9 68 13 68 5 0 30 -30 55 -68 l47 -68 53 -3 53 -3 -3 103 c-3 98 -4
103 -25 106 -22 3 -23 1 -23 -73 0 -44 -4 -75 -9 -73 -6 2 -34 35 -64 73 -49
65 -56 70 -95 73 -28 2 -44 -1 -46 -10z"/>
<path d="M5284 1277 c-3 -8 -4 -54 -2 -103 l3 -89 133 -3 c126 -2 132 -2 132
17 0 19 -8 21 -102 23 l-103 3 0 60 0 60 100 5 c85 4 100 8 103 23 3 15 -8 17
-128 17 -99 0 -132 -3 -136 -13z"/>
<path d="M6180 1184 c0 -104 0 -105 23 -102 21 3 22 8 25 106 l3 102 -26 0
-25 0 0 -106z"/>
<path d="M6260 1185 l0 -106 132 3 c117 3 133 5 136 21 3 15 -7 17 -103 17
l-106 0 3 63 3 62 100 5 c85 4 100 8 103 23 3 15 -8 17 -132 17 l-136 0 0
-105z"/>
<path d="M4807 1203 c-20 -3 -27 -9 -25 -21 3 -14 16 -17 83 -17 73 0 80 2 80
20 0 17 -7 20 -55 21 -30 1 -68 -1 -83 -3z"/>
<path d="M5370 1183 c0 -23 2 -24 78 -21 69 3 77 5 77 23 0 18 -7 20 -77 21
-76 1 -78 1 -78 -23z"/>
<path d="M6343 1194 c-10 -26 10 -34 88 -34 77 0 80 1 77 22 -3 20 -9 22 -82
23 -55 1 -80 -3 -83 -11z"/>
<path d="M1930 573 c-49 -8 -55 -12 -37 -26 15 -11 13 -25 -25 -153 -23 -78
-38 -149 -35 -158 15 -38 107 0 107 44 0 9 -5 7 -14 -6 -32 -43 -27 4 13 139
24 78 43 147 43 152 -1 12 -17 14 -52 8z"/>
<path d="M2061 566 c-21 -25 -10 -61 18 -61 31 0 50 28 35 53 -15 23 -38 26
-53 8z"/>
<path d="M2485 573 c-52 -7 -60 -12 -41 -26 14 -10 15 -18 6 -41 -5 -15 -24
-80 -41 -144 -30 -110 -30 -116 -13 -129 10 -7 39 -13 64 -13 80 0 141 57 155
145 6 33 3 45 -16 69 -19 24 -27 27 -57 23 l-34 -6 7 37 c4 20 9 49 12 65 3
15 2 26 -3 26 -5 -1 -22 -4 -39 -6z m53 -165 c17 -17 15 -57 -7 -103 -21 -48
-43 -68 -69 -63 -19 3 -19 4 2 74 20 67 40 104 55 104 4 0 12 -5 19 -12z"/>
<path d="M2725 564 c-19 -20 -16 -43 8 -58 34 -22 73 27 47 59 -16 19 -35 19
-55 -1z"/>
<path d="M2885 573 c-30 -5 -60 -23 -37 -23 19 0 14 -30 -28 -168 -22 -71 -37
-137 -34 -146 10 -25 61 -20 91 10 26 26 25 46 -2 24 -9 -7 -17 -11 -20 -8 -2
2 16 71 40 153 25 81 45 152 45 157 0 8 -2 8 -55 1z"/>
<path d="M3018 569 c-33 -19 -15 -69 24 -69 15 0 38 27 38 44 0 7 -31 36 -38
36 -4 0 -15 -5 -24 -11z"/>
<path d="M4385 573 c-44 -9 -48 -12 -36 -27 9 -11 9 -25 2 -53 -10 -36 -13
-38 -50 -38 -49 0 -84 -30 -117 -100 -26 -55 -30 -86 -14 -116 14 -26 62 -25
86 2 l18 20 8 -20 c10 -29 58 -28 86 2 25 27 30 46 7 27 -9 -7 -18 -10 -21 -7
-3 3 15 73 39 156 24 82 42 153 39 156 -6 5 -16 5 -47 -2z m-65 -163 c0 -32
-41 -123 -61 -135 -23 -15 -32 13 -19 59 25 92 80 144 80 76z"/>
<path d="M4804 566 c-17 -8 -40 -26 -50 -42 -11 -15 -34 -42 -51 -60 -37 -36
-40 -44 -18 -44 8 0 15 -6 15 -12 0 -20 -67 -258 -74 -265 -3 -4 -12 -1 -18 5
-15 15 -45 16 -54 1 -13 -21 22 -42 59 -35 67 13 102 74 148 259 10 42 14 47
40 47 15 0 30 -3 32 -7 3 -5 -6 -43 -19 -86 -13 -43 -21 -84 -17 -92 9 -24 61
-18 88 10 30 29 34 56 5 30 -28 -26 -32 -16 -14 40 8 28 21 71 29 97 l14 47
-66 -6 -66 -6 6 38 c7 43 32 75 58 75 13 0 18 -6 16 -22 -3 -33 47 -33 51 -1
6 39 -56 54 -114 29z"/>
<path d="M5685 573 c-45 -10 -50 -13 -36 -23 11 -6 12 -18 5 -52 -9 -40 -11
-43 -40 -40 -66 6 -144 -87 -144 -173 0 -66 41 -86 87 -43 l24 22 6 -22 c8
-32 57 -30 89 5 26 28 25 45 -1 23 -24 -20 -19 11 25 160 22 74 40 138 40 143
0 7 -21 8 -55 0z m-60 -143 c15 -25 -41 -147 -72 -158 -22 -7 -15 59 12 116
22 49 46 65 60 42z"/>
<path d="M1333 559 c24 -14 21 -37 -21 -179 -30 -98 -43 -127 -60 -135 -40
-18 -23 -25 58 -25 47 0 80 4 80 10 0 6 -7 10 -16 10 -18 0 -16 34 7 115 9 33
13 37 23 23 6 -9 20 -48 30 -87 l18 -71 54 0 c59 0 63 3 35 28 -25 23 -60 144
-43 150 7 2 26 15 42 29 41 34 42 92 4 122 -23 18 -40 21 -128 21 -73 -1 -96
-3 -83 -11z m138 -19 c46 -25 5 -130 -51 -130 -24 0 -24 3 -4 66 9 27 17 55
20 62 4 15 10 15 35 2z"/>
<path d="M3669 553 l21 -18 -39 -130 c-49 -165 -49 -165 -72 -165 -10 0 -19
-4 -19 -10 0 -6 35 -10 85 -10 50 0 85 4 85 10 0 6 -9 10 -20 10 -12 0 -20 7
-20 17 0 26 32 133 40 133 4 0 18 -37 32 -82 l24 -83 57 -3 c59 -3 73 6 35 23
-21 9 -34 40 -52 121 -6 28 -4 32 24 44 44 18 67 68 51 108 -17 42 -49 52
-158 52 -92 0 -95 -1 -74 -17z m132 -13 c30 -17 26 -83 -7 -109 -29 -23 -69
-28 -61 -8 2 6 12 38 21 70 18 62 18 62 47 47z"/>
<path d="M3190 510 c0 -6 -22 -25 -50 -42 -51 -32 -63 -48 -34 -48 10 0 14 -6
11 -14 -22 -57 -46 -157 -41 -170 10 -25 66 -21 92 7 25 27 30 46 7 27 -26
-22 -28 -4 -8 72 17 62 23 73 46 79 16 4 30 3 36 -4 5 -7 13 -65 16 -129 7
-106 6 -118 -9 -124 -10 -4 -28 -1 -42 7 -21 11 -27 10 -41 -3 -18 -19 -12
-45 13 -55 42 -16 130 73 223 224 39 63 40 116 3 121 -27 4 -40 -23 -24 -49
18 -28 15 -51 -15 -94 -23 -35 -27 -37 -34 -19 -4 10 -8 40 -8 66 -1 26 -6 58
-13 72 -9 21 -16 24 -37 19 -60 -15 -87 0 -72 40 9 22 8 27 -4 27 -8 0 -15 -5
-15 -10z"/>
<path d="M1701 439 c-83 -42 -130 -160 -81 -204 28 -25 112 -16 145 15 36 34
31 43 -10 19 -39 -23 -71 -19 -80 11 -8 27 1 40 29 40 30 0 87 39 106 73 32
58 -31 85 -109 46z m53 -32 c-8 -28 -44 -67 -61 -67 -7 0 -13 2 -13 5 0 15 41
84 52 88 21 7 29 -3 22 -26z"/>
<path d="M2028 453 c-29 -4 -37 -18 -16 -25 10 -4 8 -19 -6 -64 -40 -125 -38
-144 11 -144 26 0 73 41 73 62 -1 8 -6 6 -15 -6 -30 -39 -31 -7 -4 84 16 52
29 96 29 98 0 3 -36 0 -72 -5z"/>
<path d="M2192 426 c-83 -73 -98 -206 -23 -206 15 0 36 9 47 21 l18 20 8 -20
c10 -29 58 -28 86 2 25 27 30 46 7 27 -26 -22 -26 -5 0 85 14 48 25 90 25 94
0 3 -30 6 -66 7 -61 1 -70 -2 -102 -30z m78 -24 c0 -46 -38 -126 -62 -130 -14
-3 -18 3 -18 25 1 55 45 143 72 143 4 0 8 -17 8 -38z"/>
<path d="M2698 453 c-29 -4 -34 -12 -19 -28 5 -6 -1 -44 -16 -93 -14 -46 -22
-89 -19 -97 9 -25 60 -18 89 13 31 33 37 54 7 27 -11 -10 -23 -16 -26 -13 -3
4 8 49 24 102 33 107 36 100 -40 89z"/>
<path d="M2987 453 c-23 -4 -26 -8 -21 -28 3 -13 -4 -58 -16 -99 -13 -41 -20
-82 -17 -90 10 -26 64 -20 92 10 30 32 33 55 5 29 -11 -10 -22 -16 -24 -14 -3
2 4 36 15 74 10 39 22 82 25 98 7 29 5 29 -59 20z"/>
<path d="M4055 449 c-59 -17 -125 -104 -125 -163 0 -12 7 -32 16 -44 23 -33
101 -31 143 4 42 35 39 48 -4 23 -39 -23 -71 -19 -80 11 -8 26 1 40 28 40 25
0 85 34 104 59 16 21 16 54 1 69 -14 14 -40 14 -83 1z m35 -24 c0 -26 -22 -63
-46 -76 -32 -17 -39 -7 -20 29 27 53 66 81 66 47z"/>
<path d="M4535 441 c-75 -33 -128 -126 -106 -184 18 -46 101 -53 151 -11 38
32 34 40 -8 18 -38 -18 -68 -11 -75 18 -8 28 -1 38 26 38 67 1 146 90 111 124
-20 21 -50 20 -99 -3z m45 -26 c0 -28 -40 -75 -64 -75 -13 0 -14 5 -5 28 11
29 47 72 61 72 4 0 8 -11 8 -25z"/>
<path d="M5007 453 c-23 -4 -26 -8 -21 -28 3 -14 -4 -57 -16 -97 -11 -40 -23
-81 -26 -90 -4 -15 1 -18 29 -18 32 0 35 3 45 43 12 47 65 132 87 141 19 7 19
0 -5 -86 -21 -75 -16 -98 20 -98 24 0 70 38 70 58 0 14 -2 15 -10 2 -19 -31
-22 2 -6 64 10 35 16 75 14 87 -5 39 -41 36 -88 -7 l-42 -38 7 37 c8 40 8 40
-58 30z"/>
<path d="M5343 441 c-58 -27 -103 -91 -103 -147 0 -25 6 -49 16 -58 25 -25 93
-20 137 9 50 34 47 50 -4 23 -48 -25 -72 -17 -77 26 -3 21 1 26 20 26 66 2
141 77 118 119 -14 26 -51 27 -107 2z m54 -17 c4 -13 -35 -74 -52 -81 -34 -12
-30 25 7 72 19 25 38 29 45 9z"/>
</g>
</svg>
